<svg version="1.1" id="Layer_1" xmlns="http://www.w3.org/2000/svg" xmlns:xlink="http://www.w3.org/1999/xlink" x="0px" y="0px"
	 width="100%" viewBox="0 0 480 480" enable-background="new 0 0 480 480" xml:space="preserve">
<path fill="#000000" opacity="1.000000" stroke="none" 
	d="
M312.033508,358.998535 
	C316.579498,358.010437 320.695984,357.085938 324.867188,356.149139 
	C324.994720,357.894012 323.932129,358.236328 323.096619,358.708527 
	C305.258728,368.790192 287.466248,378.954041 269.549042,388.893005 
	C258.984070,394.753479 250.968918,389.841614 250.972870,377.767181 
	C250.976089,367.934082 250.852768,358.097778 251.056656,348.268494 
	C251.783859,313.211365 238.617905,283.299988 217.050461,256.577850 
	C205.726654,242.547592 192.414185,230.846924 175.682861,223.476852 
	C169.050201,220.555206 162.132935,218.754181 154.927872,218.374588 
	C134.626526,217.305023 119.364357,229.151276 113.574356,250.269424 
	C113.054153,252.166809 112.531212,254.063416 112.031769,255.879593 
	C110.476791,255.873734 110.493843,255.022583 110.497330,254.193680 
	C110.582970,233.862503 110.683243,213.531372 110.740555,193.200119 
	C110.747223,190.832764 110.985771,188.546890 111.970306,186.376434 
	C114.879745,179.962402 121.042572,177.672348 127.135506,181.112167 
	C136.852478,186.597961 146.443481,192.308365 156.054153,197.980713 
	C181.231079,212.840485 208.692764,217.154709 237.377899,215.308182 
	C257.566895,214.008575 276.867462,209.222900 294.403473,198.707306 
	C301.872131,194.228653 308.627777,188.878204 313.862885,181.745712 
	C326.197937,164.940063 325.195679,145.136261 311.184418,129.669601 
	C307.631165,125.747253 303.464966,122.473503 299.359589,118.836418 
	C301.494263,117.535667 302.648102,118.815132 303.853119,119.484322 
	C322.201599,129.674194 340.514771,139.927872 358.884796,150.078674 
	C362.196320,151.908569 364.927277,154.156891 366.650513,157.573364 
	C369.965698,164.146088 368.705963,169.015442 362.345917,172.779968 
	C354.174713,177.616531 345.996185,182.459244 337.633240,186.949997 
	C309.318451,202.154526 290.003448,225.519104 276.493256,254.123260 
	C268.218384,271.643036 263.105164,290.026947 263.376282,309.547974 
	C263.527618,320.444702 265.244904,331.110596 271.079407,340.697144 
	C279.914978,355.214752 294.724030,361.953156 312.033508,358.998535 
z"/>
<path fill="#000000" opacity="1.000000" stroke="none" 
	d="
M333.425964,344.495972 
	C322.179413,350.984833 310.657471,354.962158 297.847656,352.729279 
	C285.717316,350.614868 278.128815,342.901855 273.758820,331.808899 
	C268.110748,317.471680 268.583557,302.657928 271.910614,288.047607 
	C280.115265,252.018173 298.112610,221.898880 328.465851,200.251038 
	C339.801971,192.166168 352.437347,185.877258 364.633911,179.043533 
	C367.548279,177.410629 369.855499,175.003311 372.632965,173.430695 
	C374.684631,174.403412 374.090057,176.106857 374.093658,177.474701 
	C374.117340,186.467743 374.107483,195.461792 373.992828,204.454025 
	C373.893311,212.258301 370.430328,217.918213 363.537476,221.911636 
	C351.741913,228.745422 338.908936,234.059479 328.490601,242.952530 
	C314.760590,254.672394 306.846130,269.738434 306.159271,288.127930 
	C306.047180,291.128906 306.357452,294.086945 307.130829,297.027893 
	C310.292297,309.050323 320.086884,314.617310 332.068420,310.953583 
	C339.797607,308.590149 346.304108,303.774384 353.285065,299.928772 
	C359.778809,296.351471 366.121185,292.499329 373.450684,288.232330 
	C373.086060,297.967621 374.188568,306.899567 372.716980,315.738495 
	C371.736450,321.628052 367.138824,324.991394 362.280334,327.815399 
	C352.781555,333.336548 343.257080,338.813507 333.425964,344.495972 
z"/>
<path fill="#000000" opacity="1.000000" stroke="none" 
	d="
M308.103577,135.955841 
	C321.712372,154.708328 317.761444,173.972855 297.560699,188.857178 
	C282.960632,199.614807 266.266876,204.995636 248.597534,207.585342 
	C221.863815,211.503571 195.787170,209.193069 170.745895,198.422867 
	C164.293762,195.647827 158.572067,191.541153 152.378296,188.305344 
	C142.423203,183.104462 133.438675,176.155258 122.374168,172.105499 
	C125.204460,169.069534 128.676071,167.829834 131.708420,165.989563 
	C137.117111,162.707092 142.745468,159.780182 148.094162,156.406815 
	C155.501495,151.735123 162.658966,151.703796 170.135956,156.302170 
	C179.071838,161.797745 187.955475,167.461243 197.292068,172.205048 
	C216.834885,182.134491 236.861115,182.576111 256.058228,171.699570 
	C272.843445,162.189545 272.988281,145.106384 256.718201,134.597931 
	C246.522690,128.012909 235.695068,122.405418 225.133057,116.390961 
	C224.141907,115.826553 222.916595,115.625717 222.183243,113.424881 
	C230.990829,109.053238 238.533401,101.982231 248.827576,100.076118 
	C251.705154,99.543289 254.539902,100.439072 257.006500,101.841560 
	C270.463745,109.493225 284.149567,116.766891 297.006744,125.430389 
	C301.173401,128.237961 304.751740,131.734711 308.103577,135.955841 
z"/>
<path fill="#000000" opacity="1.000000" stroke="none" 
	d="
M235.192993,383.865356 
	C229.093399,380.372864 223.268997,377.135345 217.534988,373.744965 
	C211.641479,370.260284 208.467331,365.186615 208.547501,358.141022 
	C208.670685,347.313873 208.848190,336.479095 208.587784,325.657562 
	C208.095352,305.193420 199.187607,288.916626 183.200165,276.377197 
	C180.432175,274.206177 177.323303,272.582550 173.978683,271.460449 
	C159.019302,266.441650 146.849503,274.604401 146.338135,290.419769 
	C145.945328,302.567932 146.252182,314.738220 146.194000,326.898407 
	C146.186432,328.481445 146.903961,330.194885 145.182037,332.253448 
	C137.493134,327.301819 128.652023,324.125122 121.883598,317.559052 
	C118.895386,314.660187 117.639282,310.888672 117.652794,306.678619 
	C117.698250,292.518677 117.525261,278.355774 117.763565,264.199554 
	C117.905945,255.741867 120.359329,247.766083 124.690765,240.478531 
	C133.307983,225.980194 148.969299,220.950500 167.058289,227.032593 
	C182.268250,232.146652 194.764130,241.541855 205.544235,253.127304 
	C225.524094,274.599731 238.720413,299.657257 243.709427,328.716980 
	C244.689575,334.426025 244.859848,340.309418 244.991821,346.121735 
	C245.315536,360.378113 244.272766,374.655029 245.669281,389.207214 
	C241.778000,388.254486 238.827957,385.768066 235.192993,383.865356 
z"/>
<path fill="#000000" opacity="1.000000" stroke="none" 
	d="
M361.605835,287.702576 
	C353.233124,292.553955 345.180695,297.228943 337.092499,301.841248 
	C335.367950,302.824646 333.569519,303.732910 331.709595,304.415436 
	C321.489960,308.165863 313.681122,303.282257 312.691528,292.390717 
	C311.376526,277.917816 316.936371,265.697327 325.768250,254.767960 
	C329.417542,250.251999 333.604187,246.217239 338.787994,243.280029 
	C341.713440,241.622437 344.048645,241.332016 347.010956,243.296417 
	C351.853821,246.507889 357.010773,249.243591 362.014557,252.214874 
	C377.473572,261.394623 377.420563,278.192352 361.605835,287.702576 
z"/>
<path fill="#000000" opacity="1.000000" stroke="none" 
	d="
M236.045700,129.919342 
	C241.691132,133.199387 247.134567,136.117508 252.322037,139.435822 
	C265.659943,147.967819 265.365967,159.706573 251.287766,167.012100 
	C234.609619,175.666809 217.646530,174.946228 200.819870,166.944656 
	C197.226929,165.236084 195.702942,162.677383 195.965866,158.610794 
	C196.438126,151.306427 195.460236,143.945374 196.614609,136.655655 
	C198.612854,124.036911 211.530411,117.117172 223.108429,122.626106 
	C227.458160,124.695740 231.529068,127.351311 236.045700,129.919342 
z"/>
<path fill="#000000" opacity="1.000000" stroke="none" 
	d="
M199.526184,309.746826 
	C200.958420,314.941467 202.180389,319.752411 202.290909,324.802338 
	C202.356506,327.799652 201.323929,329.781464 198.649307,331.261047 
	C192.680969,334.562714 186.890472,338.185150 180.931396,341.504333 
	C167.476669,348.998413 152.593643,340.090790 152.599884,324.618378 
	C152.603775,314.964142 152.595474,305.309875 152.599747,295.655640 
	C152.600479,293.991272 152.568970,292.322876 152.667419,290.663177 
	C153.383179,278.596771 162.223480,273.016235 173.173477,278.074219 
	C185.474670,283.756287 192.871979,294.058868 198.206238,306.084137 
	C198.677032,307.145477 199.002853,308.271179 199.526184,309.746826 
z"/>
</svg>